<svg xmlns="http://www.w3.org/2000/svg" viewBox="0 0 800 600" width="800" height="600">
  <defs>
    <radialGradient id="glow" cx="58%" cy="52%" r="55%">
      <stop offset="0%" stop-color="#d4af37" stop-opacity="0.16"/>
      <stop offset="45%" stop-color="#d4af37" stop-opacity="0.07"/>
      <stop offset="100%" stop-color="#d4af37" stop-opacity="0"/>
    </radialGradient>
    <linearGradient id="figureFill" x1="0%" y1="0%" x2="100%" y2="100%">
      <stop offset="0%" stop-color="#1c1a14"/>
      <stop offset="100%" stop-color="#0b0b0b"/>
    </linearGradient>
    <linearGradient id="rimLight" x1="0%" y1="0%" x2="100%" y2="0%">
      <stop offset="0%" stop-color="#d4af37" stop-opacity="0"/>
      <stop offset="100%" stop-color="#f4cf63" stop-opacity="0.9"/>
    </linearGradient>
    <radialGradient id="apertureGlow" cx="50%" cy="50%" r="50%">
      <stop offset="0%" stop-color="#f4cf63" stop-opacity="0.35"/>
      <stop offset="100%" stop-color="#f4cf63" stop-opacity="0"/>
    </radialGradient>
  </defs>

  <!-- background -->
  <rect x="0" y="0" width="800" height="600" fill="#0b0b0b"/>

  <!-- soft ambient glow behind the figure -->
  <ellipse cx="470" cy="310" rx="270" ry="260" fill="url(#glow)"/>

  <!-- rule-of-thirds guide lines -->
  <g stroke="#d4af37" stroke-opacity="0.14" stroke-width="1">
    <line x1="266.7" y1="70" x2="266.7" y2="530"/>
    <line x1="533.3" y1="70" x2="533.3" y2="530"/>
    <line x1="90" y1="200" x2="710" y2="200"/>
    <line x1="90" y1="400" x2="710" y2="400"/>
  </g>

  <!-- radiating composition guide lines toward the focal point -->
  <g stroke="#d4af37" stroke-opacity="0.20" stroke-width="1" fill="none">
    <line x1="70" y1="70" x2="430" y2="170"/>
    <line x1="730" y1="70" x2="474" y2="164"/>
    <line x1="70" y1="530" x2="410" y2="420"/>
    <line x1="730" y1="540" x2="560" y2="430"/>
  </g>

  <!-- viewfinder corner brackets -->
  <g stroke="#d4af37" stroke-width="2.5" fill="none" stroke-linecap="square">
    <path d="M 70 130 L 70 70 L 130 70"/>
    <path d="M 670 70 L 730 70 L 730 130"/>
    <path d="M 730 470 L 730 530 L 670 530"/>
    <path d="M 130 530 L 70 530 L 70 470"/>
  </g>

  <!-- exposure / rule-of-thirds tick marks along the frame edges -->
  <g stroke="#d4af37" stroke-opacity="0.5" stroke-width="1.5">
    <line x1="266.7" y1="70" x2="266.7" y2="82"/>
    <line x1="533.3" y1="70" x2="533.3" y2="82"/>
    <line x1="266.7" y1="518" x2="266.7" y2="530"/>
    <line x1="533.3" y1="518" x2="533.3" y2="530"/>
  </g>

  <!-- abstract 3/4-turn silhouette gesture: a structured, tailored bust shape -->
  <g>
    <!-- shoulders / torso: single smooth silhouette, asymmetric shoulder line for a confident 3/4 turn -->
    <path d="M 362 302
             Q 362 268 410 258
             L 460 250
             Q 500 246 548 240
             Q 606 248 610 300
             C 636 355, 636 445, 588 510
             Q 520 534 452 530
             Q 386 528 356 486
             Q 330 402 362 302 Z"
          fill="url(#figureFill)" stroke="#d4af37" stroke-width="1.8" stroke-opacity="0.9" stroke-linejoin="round"/>

    <!-- rim light along the back/right edge, turned away from the key light -->
    <path d="M 548 240 Q 606 248 610 300 C 636 355, 636 445, 588 510"
          fill="none" stroke="url(#rimLight)" stroke-width="3" stroke-linecap="round" stroke-linejoin="round"/>

    <!-- lapel line: keeps the shape structured and editorial rather than literal -->
    <path d="M 404 262 L 452 316 L 496 254" fill="none" stroke="#f8f5ed" stroke-width="1.1" stroke-opacity="0.26"/>

    <!-- neck -->
    <path d="M 428 258 L 436 224 L 470 220 L 480 252 Z" fill="url(#figureFill)" stroke="#d4af37" stroke-width="1.4" stroke-opacity="0.75"/>

    <!-- head, tilted in the same 3/4 gesture -->
    <ellipse cx="452" cy="180" rx="42" ry="52" fill="url(#figureFill)" stroke="#d4af37" stroke-width="1.8" stroke-opacity="0.9" transform="rotate(-7 452 180)"/>
    <path d="M 478 146 C 492 160, 494 202, 476 220" fill="none" stroke="url(#rimLight)" stroke-width="2.5" stroke-linecap="round" transform="rotate(-7 452 180)"/>
  </g>

  <!-- autofocus reticle locking onto the subject's face -->
  <g stroke="#f4cf63" stroke-width="1.4" fill="none" opacity="0.85">
    <rect x="404" y="130" width="96" height="100" />
    <line x1="404" y1="130" x2="404" y2="144"/>
    <line x1="404" y1="130" x2="418" y2="130"/>
    <line x1="500" y1="130" x2="500" y2="144"/>
    <line x1="500" y1="130" x2="486" y2="130"/>
    <line x1="404" y1="230" x2="404" y2="216"/>
    <line x1="404" y1="230" x2="418" y2="230"/>
    <line x1="500" y1="230" x2="500" y2="216"/>
    <line x1="500" y1="230" x2="486" y2="230"/>
  </g>
  <circle cx="452" cy="180" r="3" fill="#f4cf63" opacity="0.9"/>

  <!-- abstract aperture-blade motif, lower-left accent -->
  <g transform="translate(140 470)" opacity="0.9">
    <circle cx="0" cy="0" r="46" fill="url(#apertureGlow)"/>
    <g stroke="#d4af37" stroke-width="1.2" fill="none" stroke-opacity="0.55">
      <path d="M 0 -30 L 18 -8 L 8 18 L -8 18 L -18 -8 Z"/>
      <path d="M 0 -20 L 12 -5 L 5 12 L -5 12 L -12 -5 Z"/>
    </g>
    <circle cx="0" cy="0" r="30" fill="none" stroke="#d4af37" stroke-opacity="0.3" stroke-width="1"/>
  </g>

  <!-- thin frame line, full bleed, echoing a viewfinder edge -->
  <rect x="40" y="40" width="720" height="520" fill="none" stroke="#d4af37" stroke-opacity="0.10" stroke-width="1"/>

  <!-- exposure meter ladder, upper right -->
  <g stroke="#f8f5ed" stroke-opacity="0.32" stroke-width="1.2">
    <line x1="628" y1="150" x2="628" y2="164"/>
    <line x1="642" y1="150" x2="642" y2="164"/>
    <line x1="656" y1="146" x2="656" y2="168"/>
    <line x1="670" y1="150" x2="670" y2="164"/>
    <line x1="684" y1="150" x2="684" y2="164"/>
  </g>
  <circle cx="656" cy="157" r="2" fill="#f4cf63" opacity="0.7"/>
</svg>
